<?xml version="1.0" encoding="UTF-8" standalone="no"?>
<svg
   xmlns:dc="http://purl.org/dc/elements/1.1/"
   xmlns:cc="http://creativecommons.org/ns#"
   xmlns:rdf="http://www.w3.org/1999/02/22-rdf-syntax-ns#"
   xmlns:svg="http://www.w3.org/2000/svg"
   xmlns="http://www.w3.org/2000/svg"
   id="svg4688"
   version="1.1"
   viewBox="0 0 71.437506 22.080494"
   height="83.453842"
   width="270">
  <defs
     id="defs4682">
    <filter
       height="1.3294075"
       y="-0.1647037"
       width="1.8842421"
       x="-0.44212103"
       id="filter1057"
       style="color-interpolation-filters:sRGB">
      <feGaussianBlur
         id="feGaussianBlur1059"
         stdDeviation="6.4633353" />
    </filter>
  </defs>
  <metadata
     id="metadata4685">
    <rdf:RDF>
      <cc:Work
         rdf:about="">
        <dc:format>image/svg+xml</dc:format>
        <dc:type
           rdf:resource="http://purl.org/dc/dcmitype/StillImage" />
        <dc:title></dc:title>
      </cc:Work>
    </rdf:RDF>
  </metadata>
  <g
     transform="translate(2.6458334,-285.08929)"
     style="display:inline"
     id="g1105">
    <path
       id="path1081"
       d="M 0,301.01364 H 60.870395"
       style="display:inline;fill:none;stroke:#000000;stroke-width:0.1119879;stroke-linecap:butt;stroke-linejoin:miter;stroke-miterlimit:4;stroke-dasharray:none;stroke-dashoffset:0;stroke-opacity:1" />
    <g
       transform="matrix(0.45910984,0,0,0.45910984,0,164.71401)"
       id="text1087"
       style="font-style:normal;font-variant:normal;font-weight:normal;font-stretch:normal;font-size:11.79066849px;line-height:1.25;font-family:Helvetica;-inkscape-font-specification:Helvetica;letter-spacing:0.82534724px;word-spacing:0px;display:inline;opacity:1;fill:#d10013;fill-opacity:1;stroke:#d10013;stroke-width:0.79374999;stroke-miterlimit:4;stroke-dasharray:none;stroke-opacity:1"
       aria-label="Love In Action">
      <path
         id="path832"
         style="font-style:normal;font-variant:normal;font-weight:normal;font-stretch:normal;font-size:25.15342331px;line-height:1.25;font-family:GeosansLight;-inkscape-font-specification:GeosansLight;letter-spacing:0px;fill:#d10013;fill-opacity:1;stroke:#d10013;stroke-width:0.79374999;stroke-miterlimit:4;stroke-dasharray:none;stroke-opacity:1"
         d="m 6.45885,294.82745 v -1.03129 H 1.4030119 V 276.86791 H 0.396875 v 17.95954 z" />
      <path
         id="path834"
         style="font-style:normal;font-variant:normal;font-weight:normal;font-stretch:normal;font-size:25.15342331px;line-height:1.25;font-family:GeosansLight;-inkscape-font-specification:GeosansLight;letter-spacing:0px;fill:#d10013;fill-opacity:1;stroke:#d10013;stroke-width:0.79374999;stroke-miterlimit:4;stroke-dasharray:none;stroke-opacity:1"
         d="m 18.015271,289.64585 q 0,-2.26381 -1.559512,-3.82332 -1.559512,-1.55951 -3.798167,-1.55951 -2.263808,0 -3.798167,1.58466 -1.5595123,1.55951 -1.5595123,3.79817 0,2.26381 1.5595123,3.82332 1.534359,1.53436 3.798167,1.53436 2.263808,0 3.82332,-1.55951 1.534359,-1.53436 1.534359,-3.79817 z m -1.006137,0 q 0,1.81104 -1.282824,3.09387 -1.257672,1.25767 -3.068718,1.25767 -1.785893,0 -3.0687178,-1.28282 -1.2828245,-1.28283 -1.2828245,-3.06872 0,-1.76074 1.307978,-3.06872 1.2828243,-1.30798 3.0435643,-1.30798 1.8362,0 3.093871,1.28283 1.257671,1.25767 1.257671,3.09387 z" />
      <path
         id="path836"
         style="font-style:normal;font-variant:normal;font-weight:normal;font-stretch:normal;font-size:25.15342331px;line-height:1.25;font-family:GeosansLight;-inkscape-font-specification:GeosansLight;letter-spacing:0px;fill:#d10013;fill-opacity:1;stroke:#d10013;stroke-width:0.79374999;stroke-miterlimit:4;stroke-dasharray:none;stroke-opacity:1"
         d="m 28.118689,284.43909 h -1.157058 l -3.798167,8.27548 -3.773013,-8.27548 H 18.2837 l 4.904918,10.84113 z" />
      <path
         id="path838"
         style="font-style:normal;font-variant:normal;font-weight:normal;font-stretch:normal;font-size:25.15342331px;line-height:1.25;font-family:GeosansLight;-inkscape-font-specification:GeosansLight;letter-spacing:0px;fill:#d10013;fill-opacity:1;stroke:#d10013;stroke-width:0.79374999;stroke-miterlimit:4;stroke-dasharray:none;stroke-opacity:1"
         d="m 40.147143,289.41947 q 0,-2.28896 -1.534359,-3.72271 -1.509205,-1.43374 -3.82332,-1.43374 -2.339268,0 -3.873627,1.53435 -1.509206,1.50921 -1.509206,3.84848 0,2.31411 1.534359,3.84847 1.509206,1.53436 3.848474,1.53436 0.980984,0 1.76074,-0.25153 2.037427,-0.65399 3.01841,-2.51535 l -0.930676,-0.4276 q -0.855217,1.38343 -1.936814,1.8362 -0.855216,0.35214 -1.91166,0.35214 -2.062581,0 -3.244792,-1.25767 -1.131904,-1.23251 -1.131904,-3.3454 z m -1.157057,-0.98099 h -8.426397 q 1.006137,-3.16933 4.225775,-3.16933 1.534359,0 2.71657,0.85522 1.232518,0.88037 1.484052,2.31411 z" />
      <path
         id="path840"
         style="font-style:normal;font-variant:normal;font-weight:normal;font-stretch:normal;font-size:25.15342331px;line-height:1.25;font-family:GeosansLight;-inkscape-font-specification:GeosansLight;letter-spacing:0px;fill:#d10013;fill-opacity:1;stroke:#d10013;stroke-width:0.79374999;stroke-miterlimit:4;stroke-dasharray:none;stroke-opacity:1"
         d="M 50.261177,294.82745 V 276.86791 H 49.25504 v 17.95954 z" />
      <path
         id="path842"
         style="font-style:normal;font-variant:normal;font-weight:normal;font-stretch:normal;font-size:25.15342331px;line-height:1.25;font-family:GeosansLight;-inkscape-font-specification:GeosansLight;letter-spacing:0px;fill:#d10013;fill-opacity:1;stroke:#d10013;stroke-width:0.79374999;stroke-miterlimit:4;stroke-dasharray:none;stroke-opacity:1"
         d="m 60.462492,294.82745 v -6.31351 q 0,-1.98712 -1.03129,-3.09387 -1.031291,-1.10675 -2.968104,-1.10675 -2.288962,0 -2.993258,1.38344 v -1.25767 h -1.03129 v 10.38836 h 1.03129 v -6.31351 q 0,-1.48405 0.779756,-2.33926 0.754603,-0.85522 2.213502,-0.85522 2.968104,0 2.968104,3.2951 v 6.21289 z" />
      <path
         id="path844"
         style="font-style:normal;font-variant:normal;font-weight:normal;font-stretch:normal;font-size:25.15342331px;line-height:1.25;font-family:GeosansLight;-inkscape-font-specification:GeosansLight;letter-spacing:0px;fill:#d10013;fill-opacity:1;stroke:#d10013;stroke-width:0.79374999;stroke-miterlimit:4;stroke-dasharray:none;stroke-opacity:1"
         d="m 83.683789,294.82745 -7.193879,-18.53807 -7.168726,18.53807 h 1.006137 l 2.087734,-5.38283 h 8.174863 l 2.062581,5.38283 z m -3.521479,-6.41412 h -7.3448 l 3.6724,-9.50799 z" />
      <path
         id="path846"
         style="font-style:normal;font-variant:normal;font-weight:normal;font-stretch:normal;font-size:25.15342331px;line-height:1.25;font-family:GeosansLight;-inkscape-font-specification:GeosansLight;letter-spacing:0px;fill:#d10013;fill-opacity:1;stroke:#d10013;stroke-width:0.79374999;stroke-miterlimit:4;stroke-dasharray:none;stroke-opacity:1"
         d="m 92.726853,294.098 v -1.28282 q -1.358285,1.20736 -3.169332,1.20736 -1.91166,0 -3.144177,-1.23251 -1.232518,-1.23252 -1.232518,-3.14418 0,-1.93682 1.232518,-3.16933 1.207364,-1.20737 3.144177,-1.20737 0.855217,0 1.811047,0.327 l 0.704296,0.3773 0.653989,0.42761 v -1.23252 q -1.182211,-0.90552 -3.169332,-0.90552 -2.314114,0 -3.848473,1.53435 -1.534359,1.53436 -1.534359,3.84848 0,2.31411 1.534359,3.84847 1.534359,1.53436 3.848473,1.53436 1.76074,0 3.169332,-0.93068 z" />
      <path
         id="path848"
         style="font-style:normal;font-variant:normal;font-weight:normal;font-stretch:normal;font-size:25.15342331px;line-height:1.25;font-family:GeosansLight;-inkscape-font-specification:GeosansLight;letter-spacing:0px;fill:#d10013;fill-opacity:1;stroke:#d10013;stroke-width:0.79374999;stroke-miterlimit:4;stroke-dasharray:none;stroke-opacity:1"
         d="m 99.623984,285.47038 v -1.03129 h -2.414729 v -4.55277 h -1.03129 v 4.55277 h -1.408592 v 1.03129 h 1.408592 v 9.35707 h 1.03129 v -9.35707 z" />
      <path
         id="path850"
         style="font-style:normal;font-variant:normal;font-weight:normal;font-stretch:normal;font-size:25.15342331px;line-height:1.25;font-family:GeosansLight;-inkscape-font-specification:GeosansLight;letter-spacing:0px;fill:#d10013;fill-opacity:1;stroke:#d10013;stroke-width:0.79374999;stroke-miterlimit:4;stroke-dasharray:none;stroke-opacity:1"
         d="m 103.47246,281.74767 q -0.20123,-0.83006 -0.83006,-0.83006 -0.83006,0.15092 -0.83006,0.83006 0.0251,0.3773 0.25153,0.60369 0.30184,0.22638 0.57853,0.22638 0.83006,0 0.83006,-0.83007 z m -0.32699,13.07978 v -10.38836 h -1.03129 v 10.38836 z" />
      <path
         id="path852"
         style="font-style:normal;font-variant:normal;font-weight:normal;font-stretch:normal;font-size:25.15342331px;line-height:1.25;font-family:GeosansLight;-inkscape-font-specification:GeosansLight;letter-spacing:0px;fill:#d10013;fill-opacity:1;stroke:#d10013;stroke-width:0.79374999;stroke-miterlimit:4;stroke-dasharray:none;stroke-opacity:1"
         d="m 116.49172,289.64585 q 0,-2.26381 -1.55952,-3.82332 -1.55951,-1.55951 -3.79816,-1.55951 -2.26381,0 -3.79817,1.58466 -1.55951,1.55951 -1.55951,3.79817 0,2.26381 1.55951,3.82332 1.53436,1.53436 3.79817,1.53436 2.26381,0 3.82332,-1.55951 1.53436,-1.53436 1.53436,-3.79817 z m -1.00614,0 q 0,1.81104 -1.28282,3.09387 -1.25768,1.25767 -3.06872,1.25767 -1.7859,0 -3.06872,-1.28282 -1.28282,-1.28283 -1.28282,-3.06872 0,-1.76074 1.30797,-3.06872 1.28283,-1.30798 3.04357,-1.30798 1.8362,0 3.09387,1.28283 1.25767,1.25767 1.25767,3.09387 z" />
      <path
         id="path854"
         style="font-style:normal;font-variant:normal;font-weight:normal;font-stretch:normal;font-size:25.15342331px;line-height:1.25;font-family:GeosansLight;-inkscape-font-specification:GeosansLight;letter-spacing:0px;fill:#d10013;fill-opacity:1;stroke:#d10013;stroke-width:0.79374999;stroke-miterlimit:4;stroke-dasharray:none;stroke-opacity:1"
         d="m 127.10764,294.82745 v -6.31351 q 0,-1.98712 -1.03129,-3.09387 -1.03129,-1.10675 -2.96811,-1.10675 -2.28896,0 -2.99325,1.38344 v -1.25767 h -1.03129 v 10.38836 h 1.03129 v -6.31351 q 0,-1.48405 0.77975,-2.33926 0.7546,-0.85522 2.2135,-0.85522 2.96811,0 2.96811,3.2951 v 6.21289 z" />
    </g>
    <g
       transform="matrix(0.45910984,0,0,0.45910984,0,164.71401)"
       id="text1103"
       style="font-style:normal;font-weight:normal;font-size:10.58310795px;line-height:1.25;font-family:sans-serif;letter-spacing:0px;word-spacing:0px;display:inline;fill:#000000;fill-opacity:1;stroke:none;stroke-width:0.26457769"
       aria-label="Yorktown">
      <path
         id="path857"
         style="font-style:normal;font-variant:normal;font-weight:normal;font-stretch:normal;font-family:'Madeleina Sans';-inkscape-font-specification:'Madeleina Sans';stroke-width:0.26457769"
         d="m 2.5837666,301.48545 v 3.03851 H 2.0670133 v -3.04368 L 2.0308405,301.42344 0,298.32292 h 0.59426632 l 1.73112358,2.64577 1.7311236,-2.64577 h 0.5942664 l -2.025673,3.10052 z" />
      <path
         id="path859"
         style="font-style:normal;font-variant:normal;font-weight:normal;font-stretch:normal;font-family:'Madeleina Sans';-inkscape-font-specification:'Madeleina Sans';stroke-width:0.26457769"
         d="m 5.5189254,304.0072 q 0.6407741,0 1.0955171,-0.45474 0.4547429,-0.45474 0.4547429,-1.09552 0,-0.64077 -0.4547429,-1.09551 -0.454743,-0.45475 -1.0955171,-0.45475 -0.6407741,0 -1.095517,0.45475 -0.4547429,0.45474 -0.4547429,1.09551 0,0.64078 0.4547429,1.09552 0.4547429,0.45474 1.095517,0.45474 z m 0,0.51676 q -0.8578105,0 -1.4624119,-0.60461 -0.6046013,-0.6046 -0.6046013,-1.46241 0,-0.85781 0.6046013,-1.46241 0.6046014,-0.6046 1.4624119,-0.6046 0.8578105,0 1.4624119,0.6046 0.6046014,0.6046 0.6046014,1.46241 0,0.85781 -0.6046014,1.46241 -0.6046014,0.60461 -1.4624119,0.60461 z" />
      <path
         id="path861"
         style="font-style:normal;font-variant:normal;font-weight:normal;font-stretch:normal;font-family:'Madeleina Sans';-inkscape-font-specification:'Madeleina Sans';stroke-width:0.26457769"
         d="m 9.1620363,301.28391 q -0.3772299,0.37723 -0.3772299,0.90949 v 2.33056 H 8.2680531 v -4.13403 h 0.5167533 v 0.54259 l 0.015503,-0.0155 q 0.4340728,-0.43407 1.018004,-0.51159 0.1240208,-0.0155 0.2583766,-0.0155 0.304884,0 0.573596,0.0879 l -0.165361,0.49091 q -0.191199,-0.062 -0.408235,-0.062 -0.1343558,0 -0.2583766,0.0258 -0.3720624,0.0672 -0.6562767,0.35139 z" />
      <path
         id="path863"
         style="font-style:normal;font-variant:normal;font-weight:normal;font-stretch:normal;font-family:'Madeleina Sans';-inkscape-font-specification:'Madeleina Sans';stroke-width:0.26457769"
         d="m 13.652622,304.52396 -2.015338,-1.64328 v 1.64328 h -0.516753 v -6.20104 h 0.516753 v 3.72062 l 1.860312,-1.49858 h 0.826806 l -2.377066,1.91198 2.532092,2.06702 z" />
      <path
         id="path865"
         style="font-style:normal;font-variant:normal;font-weight:normal;font-stretch:normal;font-family:'Madeleina Sans';-inkscape-font-specification:'Madeleina Sans';stroke-width:0.26457769"
         d="m 15.771311,300.38993 v -2.06701 h 0.516753 v 2.06701 h 1.033507 v 0.51675 h -1.033507 v 3.61728 h -0.516753 v -3.61728 h -1.033507 v -0.51675 z" />
      <path
         id="path867"
         style="font-style:normal;font-variant:normal;font-weight:normal;font-stretch:normal;font-family:'Madeleina Sans';-inkscape-font-specification:'Madeleina Sans';stroke-width:0.26457769"
         d="m 19.243893,304.0072 q 0.640774,0 1.095517,-0.45474 0.454743,-0.45474 0.454743,-1.09552 0,-0.64077 -0.454743,-1.09551 -0.454743,-0.45475 -1.095517,-0.45475 -0.640774,0 -1.095517,0.45475 -0.454743,0.45474 -0.454743,1.09551 0,0.64078 0.454743,1.09552 0.454743,0.45474 1.095517,0.45474 z m 0,0.51676 q -0.85781,0 -1.462412,-0.60461 -0.604601,-0.6046 -0.604601,-1.46241 0,-0.85781 0.604601,-1.46241 0.604602,-0.6046 1.462412,-0.6046 0.857811,0 1.462412,0.6046 0.604601,0.6046 0.604601,1.46241 0,0.85781 -0.604601,1.46241 -0.604601,0.60461 -1.462412,0.60461 z" />
      <path
         id="path869"
         style="font-style:normal;font-variant:normal;font-weight:normal;font-stretch:normal;font-family:'Madeleina Sans';-inkscape-font-specification:'Madeleina Sans';stroke-width:0.26457769"
         d="m 25.548284,303.28375 1.266045,-2.89382 h 0.542591 l -1.534757,3.51392 -0.273879,0.62011 -0.268712,-0.62011 -0.997334,-2.27371 -0.992166,2.27371 -0.27388,0.62011 -0.268711,-0.62011 -1.539925,-3.51392 h 0.542591 l 1.266045,2.89382 0.997334,-2.27372 0.268712,-0.6201 0.273879,0.6201 z" />
      <path
         id="path871"
         style="font-style:normal;font-variant:normal;font-weight:normal;font-stretch:normal;font-family:'Madeleina Sans';-inkscape-font-specification:'Madeleina Sans';stroke-width:0.26457769"
         d="m 30.803666,300.92219 q 0.532256,0.52708 0.532256,1.27638 v 2.32539 h -0.516753 v -2.32539 q 0,-0.53743 -0.37723,-0.91466 -0.37723,-0.37723 -0.914653,-0.37723 -0.537424,0 -0.914654,0.37723 -0.37723,0.37723 -0.37723,0.91466 v 2.32539 h -0.516753 v -4.13403 h 0.516753 v 0.54259 l 0.0155,-0.0155 q 0.527088,-0.52709 1.276381,-0.52709 0.749292,0 1.27638,0.53226 z" />
    </g>
    <g
       transform="matrix(0.09450015,0.0170121,-0.0170121,0.09450015,61.74662,276.53984)"
       id="g1079"
       style="display:inline;opacity:1">
      <g
         id="g1071"
         transform="matrix(-1.7495195,0,0,1.7495195,84.590395,-243.75362)"
         style="display:none;opacity:0.50202427;stroke:#000000;stroke-width:1.00012505;stroke-miterlimit:4;stroke-dasharray:none;stroke-opacity:1;filter:url(#filter1057)">
        <path
           id="path1067"
           d="m 35.615881,278.92167 c -0.915306,-9.41037 -10.834981,-9.17221 -11.797192,-8.95119 -1.190022,0.27324 -4.682711,0.45251 -5.713923,4.92618 -1.032103,-4.53018 -4.524015,-4.65289 -5.714322,-4.92618 -0.9629,-0.22103 -10.8794217,-0.45912 -11.79776368,8.95119 -0.888139,9.09175 17.51208568,17.46157 17.51208568,17.46157 0,0 18.398193,-8.36983 17.511115,-17.46157 z"
           style="display:inline;fill:#d10013;fill-opacity:1;stroke:#000000;stroke-width:1.00012505;stroke-linecap:butt;stroke-linejoin:miter;stroke-miterlimit:4;stroke-dasharray:none;stroke-opacity:1" />
        <path
           id="path1069"
           d="m 17.805666,202.20196 c -0.197371,10e-4 -0.430727,0.0138 -0.68682,0.0416 -1.836733,0.0674 -7.7646584,1.02128 -7.9624474,10.57766 -0.246467,11.90835 4.2569944,38.78888 4.2569944,38.78888 l 1.588561,9.77479 c 0,0 0.595117,1.92638 2.66883,1.92638 0.152346,0 0.296361,0.0288 0.433458,0.009 0.137105,0.0203 0.280718,-0.009 0.433064,-0.009 2.073721,0 2.66883,-1.92638 2.66883,-1.92638 l 1.58856,-9.77479 c 0,0 4.503864,-26.88053 4.257398,-38.78888 -0.197782,-9.55571 -6.125257,-10.51013 -7.962447,-10.57766 -0.40591,-0.0442 -0.739007,-0.0453 -0.985405,-0.0344 -0.09092,-0.004 -0.183134,-0.007 -0.298576,-0.007 z"
           style="display:inline;fill:#000003;fill-opacity:1;stroke:#000000;stroke-width:0.7746172;stroke-linecap:butt;stroke-linejoin:miter;stroke-miterlimit:4;stroke-dasharray:none;stroke-opacity:1" />
      </g>
      <g
         style="display:inline;stroke:#000000;stroke-width:1.00012505;stroke-miterlimit:4;stroke-dasharray:none;stroke-opacity:1"
         transform="matrix(-1.7495195,0,0,1.7495195,84.590395,-243.75362)"
         id="g1077">
        <path
           style="display:inline;fill:#d10013;fill-opacity:1;stroke:#000000;stroke-width:1.00012505;stroke-linecap:butt;stroke-linejoin:miter;stroke-miterlimit:4;stroke-dasharray:none;stroke-opacity:1"
           d="m 35.615881,278.92167 c -0.915306,-9.41037 -10.834981,-9.17221 -11.797192,-8.95119 -1.190022,0.27324 -4.682711,0.45251 -5.713923,4.92618 -1.032103,-4.53018 -4.524015,-4.65289 -5.714322,-4.92618 -0.9629,-0.22103 -10.8794217,-0.45912 -11.79776368,8.95119 -0.888139,9.09175 17.51208568,17.46157 17.51208568,17.46157 0,0 18.398193,-8.36983 17.511115,-17.46157 z"
           id="path1073" />
        <path
           style="display:inline;fill:#000003;fill-opacity:1;stroke:#000000;stroke-width:0.7746172;stroke-linecap:butt;stroke-linejoin:miter;stroke-miterlimit:4;stroke-dasharray:none;stroke-opacity:1"
           d="m 17.805666,202.20196 c -0.197371,10e-4 -0.430727,0.0138 -0.68682,0.0416 -1.836733,0.0674 -7.7646584,1.02128 -7.9624474,10.57766 -0.246467,11.90835 4.2569944,38.78888 4.2569944,38.78888 l 1.588561,9.77479 c 0,0 0.595117,1.92638 2.66883,1.92638 0.152346,0 0.296361,0.0288 0.433458,0.009 0.137105,0.0203 0.280718,-0.009 0.433064,-0.009 2.073721,0 2.66883,-1.92638 2.66883,-1.92638 l 1.58856,-9.77479 c 0,0 4.503864,-26.88053 4.257398,-38.78888 -0.197782,-9.55571 -6.125257,-10.51013 -7.962447,-10.57766 -0.40591,-0.0442 -0.739007,-0.0453 -0.985405,-0.0344 -0.09092,-0.004 -0.183134,-0.007 -0.298576,-0.007 z"
           id="path1075" />
      </g>
    </g>
  </g>
</svg>
